<svg width="51" height="32" viewBox="0 0 51 32" fill="none" xmlns="http://www.w3.org/2000/svg">
<path d="M11.04 27.56C11.04 26.184 10.88 25.496 10.56 25.496C10.272 25.496 9.856 25.896 9.312 26.696C8.8 27.496 8.24 28.296 7.632 29.096C7.024 29.928 6.464 30.344 5.952 30.344C5.664 30.344 5.216 29.832 4.608 28.808C4.032 27.784 3.392 26.776 2.688 25.784C1.984 24.76 1.36 24.248 0.816 24.248C0.656 24.248 0.576 24.168 0.576 24.008C0.576 23.496 1.184 22.568 2.4 21.224C3.616 19.88 4.48 19.208 4.992 19.208C5.536 19.208 6.32 20.04 7.344 21.704C8.4 23.368 9.104 24.2 9.456 24.2C9.808 24.2 10.512 23.544 11.568 22.232C12.656 20.92 13.504 20.264 14.112 20.264C14.752 20.264 15.216 20.52 15.504 21.032C15.824 21.512 16 22.04 16.032 22.616C16.096 23.192 16.16 23.736 16.224 24.248C16.288 24.728 16.416 24.968 16.608 24.968C16.928 24.968 17.744 24.184 19.056 22.616C20.4 21.016 21.376 20.216 21.984 20.216C22.656 20.216 23.776 21.224 25.344 23.24C25.92 24.008 26.64 24.712 27.504 25.352C28.4 25.96 29.136 26.264 29.712 26.264C30.288 26.264 30.848 26.168 31.392 25.976C31.936 25.784 32.4 25.688 32.784 25.688C33.168 25.688 33.36 25.816 33.36 26.072C33.36 26.2 33.296 26.312 33.168 26.408C33.072 26.504 32.8 26.76 32.352 27.176C31.936 27.56 31.584 27.864 31.296 28.088C31.04 28.312 30.656 28.616 30.144 29C29.664 29.416 29.248 29.736 28.896 29.96C27.936 30.536 27.024 30.824 26.16 30.824C25.328 30.824 24.384 30.344 23.328 29.384C22.304 28.456 21.408 27.528 20.64 26.6C19.904 25.64 19.36 25.16 19.008 25.16C18.656 25.16 18.08 25.64 17.28 26.6C16.512 27.56 15.712 28.52 14.88 29.48C14.08 30.44 13.376 30.92 12.768 30.92C12.192 30.92 11.744 30.648 11.424 30.104C11.136 29.56 10.992 28.968 10.992 28.328L11.04 27.56ZM34.5698 19.688C35.4978 18.856 36.3298 16.968 37.0658 14.024C37.8338 11.048 38.2178 8.712 38.2178 7.016C38.2178 5.32 37.9138 4.472 37.3058 4.472C36.3778 4.472 35.6258 5.768 35.0498 8.36C34.4738 10.952 34.1858 13.112 34.1858 14.84C34.1858 16.536 34.3138 18.152 34.5698 19.688ZM35.9138 31.064C35.0498 31.064 34.2978 30.76 33.6578 30.152C33.0498 29.544 32.5858 28.872 32.2658 28.136C31.9778 27.4 31.7538 26.504 31.5938 25.448C31.0497 21.928 31.3377 17.608 32.4578 12.488C33.1298 9.256 34.0578 6.504 35.2418 4.232C36.4258 1.928 37.6258 0.776 38.8418 0.776C39.3538 0.776 39.7538 1.096 40.0418 1.736C40.3618 2.344 40.5218 2.904 40.5218 3.416C40.4898 6.488 39.8658 9.848 38.6497 13.496C37.4338 17.112 36.1858 19.704 34.9058 21.272C35.8978 24.76 37.4498 26.504 39.5618 26.504C40.0738 26.504 40.6498 26.36 41.2898 26.072C40.0418 25.624 39.4178 24.712 39.4178 23.336C39.4178 21.928 39.9298 20.568 40.9538 19.256C42.0098 17.944 43.0978 17.288 44.2178 17.288C44.5698 17.288 44.8578 17.432 45.0818 17.72C45.3378 17.976 45.4658 18.296 45.4658 18.68C45.4658 19.064 45.3858 19.464 45.2258 19.88C45.0658 20.296 44.9858 20.728 44.9858 21.176C44.9858 22.104 45.5938 22.568 46.8098 22.568C47.2258 22.568 47.7218 22.392 48.2978 22.04C48.8738 21.656 49.2578 21.464 49.4498 21.464C49.8658 21.464 50.0738 21.624 50.0738 21.944C50.0738 22.264 49.7698 22.712 49.1618 23.288C48.5538 23.832 47.6738 24.408 46.5218 25.016C45.3698 25.592 44.1858 25.96 42.9698 26.12C41.5938 29.416 39.2418 31.064 35.9138 31.064Z" fill="white"/>
</svg>
